<?xml version="1.0" standalone="no"?>
<!DOCTYPE svg PUBLIC "-//W3C//DTD SVG 20010904//EN"
 "http://www.w3.org/TR/2001/REC-SVG-20010904/DTD/svg10.dtd">
<svg version="1.0" xmlns="http://www.w3.org/2000/svg"
 width="2064.000000pt" height="2072.000000pt" viewBox="0 0 2064.000000 2072.000000"
 preserveAspectRatio="xMidYMid meet">

<g transform="translate(0.000000,2072.000000) scale(0.100000,-0.100000)"
fill="#000000" stroke="none">
<path d="M9931 19823 c-19 -3 -48 -15 -64 -29 -16 -13 -32 -24 -37 -24 -5 0
-11 -8 -15 -18 -8 -26 -112 -130 -138 -138 -11 -3 -45 -31 -75 -60 -29 -30
-58 -54 -63 -54 -5 0 -9 -3 -9 -8 0 -4 -36 -44 -79 -89 -44 -46 -82 -91 -85
-101 -11 -35 -158 -172 -184 -172 -6 0 -14 -9 -17 -20 -3 -11 -11 -20 -16 -20
-13 0 -109 -96 -109 -109 0 -5 -9 -13 -20 -16 -11 -3 -20 -11 -20 -18 0 -14
-176 -187 -190 -187 -5 0 -10 -6 -10 -14 0 -8 -9 -18 -20 -21 -11 -3 -20 -12
-20 -20 0 -8 -9 -17 -20 -20 -11 -3 -20 -13 -20 -21 0 -8 -4 -14 -9 -14 -12 0
-841 -827 -841 -839 0 -5 -9 -13 -20 -16 -11 -3 -20 -12 -20 -20 0 -8 -9 -17
-20 -20 -11 -3 -20 -13 -20 -21 0 -8 -4 -14 -9 -14 -11 0 -71 -58 -71 -69 0
-5 -9 -13 -20 -16 -11 -3 -20 -12 -20 -20 0 -8 -9 -17 -20 -20 -11 -3 -20 -12
-20 -20 0 -8 -9 -16 -19 -20 -10 -3 -21 -15 -24 -25 -3 -11 -12 -20 -20 -20
-8 0 -17 -9 -20 -20 -3 -11 -12 -20 -21 -20 -9 0 -16 -6 -16 -12 0 -7 -18 -29
-40 -48 -22 -19 -40 -38 -40 -42 0 -10 -101 -108 -111 -108 -5 0 -9 -5 -9 -11
0 -9 -65 -76 -120 -124 -8 -7 -30 -16 -49 -20 -19 -4 -41 -13 -48 -20 -7 -7
-49 -16 -95 -19 -46 -4 -861 -9 -1813 -11 -951 -2 -1752 -4 -1780 -5 -27 0
-96 2 -153 6 -115 6 -120 4 -148 -65 -15 -38 -15 -45 1 -106 17 -60 17 -93 9
-378 -5 -172 -10 -613 -11 -982 -2 -1059 -14 -2312 -22 -2404 -6 -62 -12 -86
-24 -93 -9 -5 -17 -20 -17 -33 0 -13 -11 -36 -25 -51 -14 -15 -25 -31 -25 -35
0 -5 -6 -9 -14 -9 -8 0 -18 -9 -21 -20 -3 -11 -12 -20 -20 -20 -8 0 -17 -9
-20 -20 -3 -11 -11 -20 -16 -20 -13 0 -149 -136 -149 -149 0 -5 -9 -13 -20
-16 -11 -3 -20 -12 -20 -20 0 -8 -9 -17 -20 -20 -11 -3 -20 -12 -20 -20 0 -8
-9 -17 -20 -20 -11 -3 -20 -12 -20 -20 0 -8 -9 -17 -20 -20 -11 -3 -20 -12
-20 -20 0 -8 -9 -17 -20 -20 -11 -3 -20 -12 -20 -20 0 -8 -9 -17 -20 -20 -11
-3 -20 -12 -20 -20 0 -8 -9 -16 -19 -20 -10 -3 -21 -15 -24 -25 -3 -11 -12
-20 -21 -20 -9 0 -16 -6 -16 -14 0 -8 -9 -17 -19 -21 -11 -3 -23 -15 -26 -26
-4 -10 -12 -19 -20 -19 -7 0 -15 -9 -18 -20 -3 -11 -12 -20 -20 -20 -9 0 -19
-9 -22 -20 -3 -11 -12 -20 -20 -20 -7 0 -15 -9 -18 -20 -3 -11 -12 -20 -20
-20 -8 0 -17 -9 -20 -20 -3 -11 -12 -20 -20 -20 -8 0 -17 -9 -20 -20 -3 -11
-12 -20 -20 -20 -9 0 -19 -9 -22 -20 -3 -11 -12 -20 -20 -20 -8 0 -17 -9 -20
-20 -3 -11 -12 -20 -20 -20 -8 0 -17 -9 -20 -20 -3 -11 -12 -20 -20 -20 -8 0
-17 -9 -20 -20 -3 -11 -12 -20 -20 -20 -8 0 -17 -9 -20 -20 -3 -11 -12 -20
-20 -20 -8 0 -17 -9 -20 -20 -3 -11 -13 -20 -21 -20 -8 0 -14 -4 -14 -9 0 -11
-190 -201 -201 -201 -5 0 -9 -4 -9 -9 0 -6 -281 -292 -625 -637 -344 -345
-625 -631 -625 -636 0 -4 -6 -8 -14 -8 -9 0 -16 -16 -20 -43 -4 -23 -13 -55
-21 -71 -17 -32 -19 -62 -6 -70 5 -3 15 -30 21 -58 7 -29 21 -61 31 -71 11
-10 19 -21 19 -26 0 -4 36 -45 80 -92 44 -46 80 -89 80 -95 0 -7 9 -14 20 -17
11 -3 20 -12 20 -20 0 -8 9 -17 20 -20 11 -3 20 -12 20 -21 0 -9 7 -16 15 -16
8 0 20 -9 27 -20 7 -11 16 -20 21 -20 7 0 176 -167 202 -200 6 -8 15 -23 18
-32 4 -10 13 -18 21 -18 7 0 16 -9 19 -20 3 -11 12 -20 21 -20 9 0 16 -5 16
-11 0 -13 55 -69 68 -69 5 0 12 -9 15 -20 3 -11 12 -20 20 -20 9 0 19 -9 22
-20 3 -11 12 -20 20 -20 8 0 17 -9 20 -20 3 -11 13 -20 22 -20 8 0 17 -9 20
-20 3 -11 11 -20 18 -20 8 0 17 -9 20 -20 3 -11 13 -20 22 -20 8 0 17 -9 20
-20 3 -11 12 -20 20 -20 8 0 17 -9 20 -20 3 -11 12 -20 19 -20 8 0 14 -4 14
-9 0 -11 139 -151 151 -151 5 0 9 -4 9 -9 0 -12 69 -81 81 -81 5 0 9 -6 9 -14
0 -8 10 -16 23 -19 12 -4 41 -24 64 -47 23 -22 47 -40 52 -40 5 0 13 -9 16
-20 3 -11 12 -20 20 -20 8 0 17 -9 20 -20 3 -11 13 -20 21 -20 8 0 14 -4 14
-9 0 -11 99 -111 110 -111 5 0 12 -9 15 -20 3 -11 13 -20 22 -20 8 0 17 -9 20
-20 3 -11 10 -20 17 -20 6 0 27 -18 46 -40 19 -22 38 -40 43 -40 4 0 20 -14
35 -31 15 -17 35 -38 44 -47 10 -9 18 -22 18 -29 0 -7 7 -13 16 -13 9 0 18 -9
21 -20 3 -10 14 -22 24 -25 10 -4 19 -12 19 -20 0 -8 9 -17 20 -20 11 -3 20
-12 20 -20 0 -8 9 -17 20 -20 11 -3 20 -12 20 -20 0 -8 9 -17 20 -20 11 -3 20
-13 20 -21 0 -8 4 -14 9 -14 5 0 28 -18 51 -40 23 -22 44 -40 46 -40 32 0 413
-381 421 -421 3 -16 11 -29 18 -29 14 0 25 -22 25 -50 0 -11 8 -23 18 -29 13
-7 19 -28 23 -88 4 -43 12 -98 18 -123 10 -35 10 -73 0 -170 -9 -91 -10 -208
-4 -435 5 -170 10 -490 11 -710 1 -220 4 -859 8 -1420 6 -966 7 -1021 24
-1038 18 -17 101 -18 1994 -20 l1976 -2 24 -22 c14 -13 31 -23 40 -23 25 0
138 -104 138 -127 0 -6 8 -18 18 -25 10 -7 21 -21 25 -30 3 -10 13 -18 22 -18
8 0 15 -7 15 -16 0 -9 9 -18 20 -21 11 -3 20 -12 20 -20 0 -8 9 -17 20 -20 10
-3 22 -14 25 -24 4 -10 12 -19 20 -19 8 0 17 -9 20 -20 3 -11 12 -20 20 -20 8
0 16 -9 20 -19 3 -10 15 -21 25 -24 11 -3 20 -12 20 -20 0 -8 9 -17 20 -20 11
-3 20 -12 20 -21 0 -9 5 -16 10 -16 14 0 56 -40 436 -415 384 -378 488 -478
503 -483 6 -2 11 -10 11 -17 0 -8 9 -17 20 -20 11 -3 20 -12 20 -20 0 -8 9
-17 20 -20 11 -3 20 -13 20 -22 0 -8 9 -17 20 -20 11 -3 20 -9 20 -14 0 -13
217 -229 229 -229 5 0 13 -9 16 -20 3 -11 12 -20 20 -20 8 0 17 -9 20 -20 3
-11 12 -20 20 -20 8 0 17 -9 20 -20 3 -11 11 -20 16 -20 14 0 109 -95 109
-108 0 -7 5 -12 10 -12 6 0 30 -18 52 -40 23 -22 45 -40 48 -40 4 0 45 -38 93
-85 47 -47 91 -85 97 -85 5 0 10 -4 10 -9 0 -5 38 -48 85 -97 47 -48 85 -92
85 -97 0 -11 51 -60 100 -97 18 -14 51 -42 72 -63 22 -20 44 -37 50 -37 5 0
23 -8 39 -17 24 -14 33 -15 47 -5 9 7 27 16 40 22 12 5 25 17 28 25 4 8 12 15
19 15 8 0 17 9 20 20 3 11 13 20 21 20 8 0 14 7 14 16 0 9 9 18 20 21 10 3 22
13 25 23 3 10 15 20 25 23 11 3 20 12 20 20 0 8 9 17 20 20 11 3 20 12 20 20
0 8 9 17 20 20 11 3 20 12 20 20 0 8 9 17 20 20 11 3 20 12 20 21 0 9 5 16 11
16 13 0 503 491 512 513 3 9 13 17 22 17 8 0 15 5 15 11 0 10 36 47 159 162
28 26 51 52 51 57 0 6 4 10 10 10 5 0 31 23 57 50 52 54 92 95 263 263 61 60
110 111 110 113 0 3 77 80 171 172 95 92 352 345 571 563 330 328 406 399 441
410 35 12 390 14 2022 16 1089 1 1988 2 1998 3 9 0 23 12 29 28 7 15 18 34 25
43 10 12 13 394 15 2015 l3 1999 53 75 c28 41 64 84 79 95 31 22 369 353 527
514 55 57 161 162 235 235 73 72 172 171 220 220 224 229 845 846 852 846 5 0
9 4 9 10 0 13 415 430 428 430 6 0 14 9 17 20 3 11 12 20 20 20 8 0 17 9 20
20 3 11 13 20 21 20 8 0 14 4 14 9 0 5 47 56 105 112 101 99 105 105 105 146
0 28 -6 49 -18 61 -10 10 -21 26 -25 35 -3 9 -13 17 -22 17 -8 0 -15 7 -15 15
0 8 -4 15 -9 15 -5 0 -20 9 -33 20 -55 46 -86 70 -92 70 -4 0 -51 44 -106 99
-54 54 -106 101 -114 104 -9 4 -16 13 -16 22 0 8 -7 15 -15 15 -8 0 -15 4 -15
8 0 5 -37 48 -82 95 -46 48 -103 109 -128 136 -25 28 -50 51 -57 51 -6 0 -15
9 -18 20 -3 11 -13 20 -21 20 -8 0 -14 4 -14 8 0 5 -21 31 -47 59 -27 27 -66
71 -88 97 -22 27 -75 84 -117 128 -43 45 -78 83 -78 85 0 3 -27 31 -60 63 -33
32 -60 62 -60 68 0 5 -9 12 -20 15 -11 3 -20 12 -20 20 0 8 -9 17 -20 20 -11
3 -20 12 -20 20 0 8 -9 17 -20 20 -11 3 -20 12 -20 21 0 9 -5 16 -10 16 -12 0
-400 390 -400 402 0 4 -7 8 -15 8 -8 0 -15 4 -15 9 0 5 -29 40 -65 78 -248
263 -275 292 -275 304 0 5 -4 9 -10 9 -8 0 -112 98 -397 378 -30 29 -59 66
-65 82 -5 17 -16 30 -24 30 -7 0 -16 16 -20 38 -4 20 -14 42 -23 49 -15 10
-16 192 -19 1980 l-2 1969 -35 13 c-19 7 -35 17 -35 22 0 6 -402 8 -1117 6
-615 -3 -1474 -2 -1909 2 -711 5 -794 8 -810 22 -11 9 -37 20 -59 24 -22 4
-47 14 -57 23 -9 10 -28 26 -42 37 -14 11 -37 30 -51 43 -15 12 -30 22 -34 22
-4 0 -36 27 -69 60 -34 33 -66 60 -72 60 -5 0 -10 4 -10 9 0 11 -58 71 -69 71
-5 0 -13 9 -16 20 -3 11 -13 20 -21 20 -8 0 -14 4 -14 9 0 4 -28 37 -62 73
-35 36 -76 82 -93 104 -16 21 -63 70 -104 109 -41 38 -111 108 -155 154 -45
46 -135 139 -201 207 -170 174 -205 211 -205 223 0 6 -6 11 -14 11 -8 0 -17 9
-21 19 -3 10 -15 21 -25 24 -11 3 -20 12 -20 20 0 8 -9 17 -20 20 -11 3 -20
12 -20 20 0 8 -9 17 -20 20 -11 3 -20 12 -20 21 0 9 -5 16 -10 16 -13 0 -150
136 -150 148 0 6 -9 12 -20 15 -11 3 -20 12 -20 21 0 9 -5 16 -10 16 -13 0
-150 136 -150 148 0 6 -9 12 -20 15 -11 3 -20 12 -20 20 0 9 -9 19 -20 22 -11
3 -20 10 -20 16 0 5 -72 81 -160 169 -88 88 -160 164 -160 169 0 5 -9 11 -20
14 -11 3 -20 12 -20 20 0 8 -9 17 -20 20 -11 3 -20 12 -20 20 0 8 -9 17 -20
20 -11 3 -20 12 -20 20 0 8 -9 17 -20 20 -11 3 -20 12 -20 20 0 8 -9 17 -20
20 -11 3 -20 12 -20 20 0 8 -9 17 -20 20 -11 3 -20 12 -20 20 0 9 -9 19 -20
22 -11 3 -20 12 -20 20 0 8 -9 17 -20 20 -11 3 -20 12 -20 20 0 8 -9 17 -20
20 -11 3 -20 12 -20 20 0 8 -9 17 -20 20 -11 3 -20 13 -20 21 0 8 -4 14 -9 14
-4 0 -36 27 -70 60 -52 51 -69 62 -112 70 -29 6 -57 9 -63 8 -6 0 -27 -3 -45
-5z m-4 -283 c14 -11 37 -20 50 -20 16 0 27 -7 30 -20 3 -11 11 -20 19 -20 7
0 18 -9 24 -20 6 -11 17 -20 25 -20 7 0 17 -9 20 -20 3 -11 12 -20 20 -20 8 0
17 -9 20 -20 3 -11 13 -20 22 -20 8 0 17 -9 20 -20 3 -11 10 -20 15 -20 13 0
308 -296 308 -309 0 -5 9 -13 20 -16 11 -3 20 -13 20 -21 0 -8 4 -14 8 -14 10
0 72 -54 72 -63 0 -3 45 -51 100 -106 55 -54 100 -104 100 -110 0 -6 7 -11 16
-11 9 0 18 -9 21 -20 3 -11 12 -20 20 -20 8 0 17 -9 20 -20 3 -11 12 -20 20
-20 8 0 17 -9 20 -20 3 -11 12 -20 20 -20 8 0 17 -9 20 -20 3 -11 12 -20 20
-20 8 0 17 -9 20 -20 3 -11 12 -20 20 -20 8 0 17 -9 20 -20 3 -11 12 -20 20
-20 8 0 17 -9 20 -20 3 -11 12 -20 20 -20 8 0 17 -9 20 -20 3 -10 14 -22 24
-25 10 -4 19 -12 19 -20 0 -7 9 -15 20 -18 11 -3 20 -12 20 -21 0 -9 7 -16 16
-16 9 0 18 -9 21 -20 3 -11 12 -20 20 -20 8 0 17 -9 20 -20 3 -10 14 -22 24
-25 10 -4 19 -12 19 -20 0 -8 9 -17 20 -20 11 -3 20 -13 20 -21 0 -8 4 -14 9
-14 12 0 201 -188 201 -200 0 -6 6 -10 14 -10 8 0 18 -9 21 -20 3 -11 12 -20
20 -20 8 0 17 -9 20 -20 3 -11 12 -20 20 -20 8 0 17 -9 20 -20 3 -11 12 -20
20 -20 8 0 17 -9 20 -20 3 -11 12 -20 20 -20 8 0 17 -9 20 -20 3 -11 12 -20
20 -20 8 0 17 -9 20 -20 3 -11 13 -20 22 -20 8 0 17 -9 20 -20 3 -11 12 -20
19 -20 8 0 14 -4 14 -9 0 -5 25 -34 56 -65 31 -31 60 -56 65 -56 5 0 9 -6 9
-14 0 -8 9 -18 20 -21 11 -3 20 -10 20 -15 0 -11 100 -110 111 -110 5 0 9 -7
9 -15 0 -8 9 -19 20 -25 11 -6 20 -17 20 -25 0 -8 7 -15 16 -15 9 0 18 -9 21
-20 3 -11 12 -20 19 -20 8 0 19 -11 24 -25 5 -14 14 -25 20 -25 5 0 12 -11 16
-25 3 -14 15 -30 25 -36 11 -5 19 -19 19 -29 0 -12 7 -20 16 -20 9 0 18 -9 21
-20 3 -11 12 -20 20 -20 8 0 17 -9 20 -20 3 -11 12 -20 20 -20 8 0 17 -9 20
-20 3 -11 11 -20 19 -20 7 0 18 -9 24 -20 7 -14 21 -20 43 -20 18 0 45 -7 60
-15 24 -12 282 -15 1900 -20 1030 -3 1884 -8 1898 -10 32 -5 89 -54 89 -76 0
-9 9 -26 20 -39 23 -26 23 -40 20 -595 -1 -197 3 -368 11 -445 16 -164 17
-405 1 -780 -13 -321 -3 -999 17 -1145 13 -90 13 -504 0 -570 -18 -97 -22
-173 -10 -207 7 -18 16 -64 21 -103 5 -43 15 -74 24 -81 9 -6 16 -16 16 -21 0
-14 121 -138 143 -146 9 -3 17 -13 17 -22 0 -8 5 -15 10 -15 6 0 47 -36 91
-80 44 -44 85 -80 90 -80 5 0 12 -7 15 -15 3 -8 50 -60 105 -116 54 -56 99
-105 99 -110 0 -5 6 -9 14 -9 8 0 18 -9 21 -20 3 -11 13 -20 22 -20 8 0 17 -9
20 -20 3 -11 11 -20 18 -20 8 0 17 -9 20 -20 3 -11 13 -20 22 -20 8 0 17 -9
20 -20 3 -11 12 -20 20 -20 8 0 17 -9 20 -20 3 -11 12 -20 20 -20 8 0 17 -9
20 -20 3 -11 12 -20 20 -20 8 0 17 -9 20 -20 3 -11 12 -20 20 -20 8 0 17 -9
20 -20 3 -11 12 -20 20 -20 8 0 17 -9 20 -20 3 -11 12 -20 20 -20 8 0 17 -9
20 -20 3 -11 12 -20 20 -20 8 0 17 -9 20 -20 3 -11 12 -20 20 -20 8 0 17 -9
20 -20 3 -10 14 -22 24 -25 10 -4 19 -11 19 -16 0 -5 87 -98 194 -206 198
-202 680 -695 794 -811 34 -35 62 -68 62 -73 0 -4 9 -13 20 -19 11 -6 20 -17
20 -25 0 -8 7 -15 16 -15 9 0 18 -9 21 -20 3 -11 12 -20 20 -20 8 0 17 -8 20
-18 2 -10 12 -22 22 -27 44 -24 101 -66 101 -75 0 -6 7 -10 15 -10 9 0 19 -8
22 -17 4 -10 15 -29 25 -42 15 -19 18 -42 18 -121 l0 -96 -54 -57 c-32 -34
-62 -57 -74 -57 -12 0 -26 -9 -32 -20 -6 -11 -17 -20 -25 -20 -8 0 -15 -7 -15
-16 0 -9 -9 -18 -20 -21 -11 -3 -20 -12 -20 -19 0 -8 -7 -17 -16 -21 -9 -3
-19 -14 -22 -24 -9 -23 -230 -255 -485 -508 -109 -108 -244 -243 -300 -300
-56 -57 -177 -180 -269 -274 -93 -93 -168 -173 -168 -178 0 -5 -6 -9 -14 -9
-8 0 -18 -9 -21 -20 -3 -11 -12 -20 -20 -20 -8 0 -17 -9 -20 -20 -3 -11 -12
-20 -20 -20 -8 0 -17 -9 -20 -20 -3 -11 -12 -20 -20 -20 -8 0 -17 -9 -20 -20
-3 -11 -10 -20 -15 -20 -13 0 -150 -137 -150 -149 0 -6 -6 -11 -14 -11 -8 0
-17 -9 -21 -19 -3 -11 -15 -23 -26 -26 -10 -4 -19 -13 -19 -21 0 -8 -4 -14 -9
-14 -12 0 -71 -58 -71 -70 0 -6 -4 -10 -9 -10 -6 0 -40 -32 -78 -71 -126 -132
-179 -184 -228 -224 -79 -65 -165 -155 -165 -174 0 -5 -9 -15 -20 -21 -13 -7
-20 -21 -20 -42 0 -17 -8 -40 -17 -51 -16 -17 -18 -40 -17 -176 0 -92 5 -172
13 -196 18 -60 26 -469 11 -580 -19 -142 -24 -405 -9 -534 10 -91 10 -121 0
-155 -34 -113 -34 -1561 0 -1671 8 -25 13 -104 13 -215 1 -142 -3 -184 -17
-223 -9 -26 -17 -67 -17 -91 0 -34 -7 -50 -34 -80 l-33 -38 -294 -2 c-162 -2
-319 -8 -349 -13 -80 -15 -1540 -17 -1605 -3 -57 13 -1113 28 -1406 20 -159
-4 -188 -7 -203 -23 -10 -9 -27 -17 -38 -17 -20 0 -238 -212 -238 -231 0 -5
-7 -9 -15 -9 -8 0 -15 -4 -15 -9 0 -9 -57 -71 -65 -71 -3 0 -25 -18 -48 -40
-23 -23 -52 -43 -64 -47 -13 -3 -23 -12 -23 -19 0 -8 -7 -17 -16 -21 -9 -3
-33 -22 -52 -42 -36 -36 -54 -49 -102 -73 -33 -17 -67 -49 -268 -251 -92 -93
-458 -461 -814 -818 -357 -357 -648 -654 -648 -659 0 -5 -9 -14 -20 -20 -11
-6 -20 -18 -20 -28 0 -9 -25 -44 -55 -77 l-54 -60 -107 1 c-97 0 -108 2 -124
22 -10 12 -24 22 -30 22 -22 0 -72 46 -335 305 -145 143 -275 269 -290 280
-15 11 -44 34 -64 50 -34 28 -56 50 -172 172 -26 26 -68 66 -94 88 -70 60
-225 214 -225 225 0 5 -9 12 -20 15 -11 3 -20 13 -20 22 0 8 -9 17 -20 20 -11
3 -20 12 -20 20 0 8 -9 17 -20 20 -11 3 -20 9 -20 13 0 12 -258 270 -269 270
-5 0 -13 9 -16 20 -3 11 -12 20 -20 20 -8 0 -17 9 -20 20 -3 11 -13 20 -21 20
-8 0 -14 5 -14 10 0 14 -826 840 -840 840 -6 0 -24 9 -39 21 l-28 21 -1314 -7
c-723 -4 -1415 -7 -1539 -8 -124 -1 -376 2 -560 7 -298 7 -339 10 -373 27 -21
10 -43 19 -49 19 -20 0 -68 63 -68 89 0 13 -8 33 -18 44 -16 18 -17 113 -22
1606 -5 1255 -8 1595 -19 1631 -8 28 -11 71 -7 115 18 227 19 274 2 315 -9 22
-16 57 -16 78 0 26 -6 41 -20 50 -11 7 -20 19 -20 27 0 8 -5 15 -11 15 -5 0
-16 15 -24 34 -8 18 -21 36 -30 39 -8 4 -15 13 -15 22 0 8 -7 15 -16 15 -9 0
-18 9 -21 20 -3 11 -12 20 -20 20 -8 0 -17 9 -20 20 -3 11 -11 20 -19 20 -7 0
-18 9 -24 20 -6 11 -17 20 -24 20 -8 0 -24 11 -37 25 -13 13 -29 25 -36 25 -6
0 -15 9 -18 20 -3 11 -10 20 -15 20 -9 0 -70 85 -70 98 0 4 -18 23 -40 42 -22
19 -40 38 -40 42 0 10 -101 108 -111 108 -5 0 -9 7 -9 15 0 8 -7 15 -16 15 -9
0 -18 9 -21 20 -3 11 -12 20 -20 20 -8 0 -17 9 -20 20 -3 11 -9 20 -15 20 -5
0 -38 29 -74 65 -36 36 -70 65 -75 65 -5 0 -9 7 -9 15 0 8 -5 15 -11 15 -14 0
-69 55 -69 69 0 6 -7 11 -15 11 -9 0 -18 7 -22 16 -8 20 -260 274 -273 274 -6
0 -10 7 -10 15 0 8 -4 15 -9 15 -11 0 -71 58 -71 69 0 5 -9 13 -20 16 -11 3
-20 12 -20 20 0 8 -9 16 -19 20 -10 3 -21 15 -24 25 -3 11 -12 20 -20 20 -9 0
-19 9 -22 20 -3 11 -10 20 -16 20 -13 0 -229 214 -229 228 0 7 -6 12 -14 12
-8 0 -18 9 -21 20 -3 11 -11 20 -18 20 -14 0 -227 216 -227 230 0 5 -4 10 -9
10 -20 0 -271 245 -271 265 0 8 -9 19 -20 25 -11 6 -20 17 -20 25 0 8 -7 15
-16 15 -9 0 -18 9 -21 20 -3 11 -13 20 -22 20 -9 0 -22 9 -29 20 -7 11 -19 20
-27 20 -25 0 -125 108 -125 134 0 15 -7 26 -20 29 -13 3 -20 14 -20 29 0 12
-10 41 -21 63 l-22 40 27 39 c14 21 26 43 26 47 0 5 6 9 14 9 8 0 18 9 21 20
3 11 12 20 19 20 6 0 153 143 326 318 173 174 646 650 1052 1058 406 408 738
746 738 753 0 6 4 11 9 11 12 0 147 135 154 155 4 8 13 15 22 15 8 0 15 7 15
16 0 9 9 18 20 21 11 3 20 12 20 20 0 8 9 17 20 20 11 3 20 12 20 19 0 8 7 17
16 21 21 8 104 90 104 103 0 5 9 14 20 20 14 8 20 21 20 46 0 19 8 47 18 61
16 26 17 137 22 1873 4 1408 8 1851 17 1872 9 19 22 29 45 32 28 5 1233 12
3183 20 313 1 462 5 490 14 22 6 60 12 84 12 l44 0 696 694 c383 382 977 974
1321 1314 344 341 634 629 645 640 26 26 41 26 72 2z"/>
<path d="M6046 12933 c-16 -3 -39 -10 -50 -18 -12 -7 -46 -15 -75 -19 -33 -3
-58 -11 -63 -20 -5 -9 -24 -18 -43 -22 -18 -3 -36 -12 -39 -20 -3 -8 -12 -14
-20 -14 -8 0 -18 -9 -21 -20 -3 -11 -11 -20 -16 -20 -10 0 -149 -135 -149
-144 0 -3 -16 -21 -35 -40 -19 -19 -37 -47 -41 -61 -4 -15 -13 -29 -20 -32 -7
-2 -18 -20 -24 -39 -6 -19 -15 -34 -20 -34 -5 0 -12 -16 -16 -35 -3 -20 -14
-43 -23 -52 -13 -14 -16 -42 -16 -180 0 -145 2 -166 17 -174 10 -5 20 -25 24
-44 3 -18 12 -36 19 -39 8 -3 17 -21 21 -40 3 -21 12 -36 20 -36 8 0 14 -4 14
-9 0 -4 10 -20 23 -34 44 -50 67 -82 67 -94 0 -7 9 -17 20 -23 11 -6 20 -16
20 -23 0 -7 9 -20 20 -30 11 -9 20 -27 20 -39 0 -13 9 -29 20 -36 13 -8 20
-23 20 -44 0 -17 8 -40 18 -51 24 -27 25 -183 1 -200 -9 -7 -19 -26 -23 -43
-6 -28 -75 -94 -98 -94 -14 0 -95 -87 -129 -140 -18 -27 -36 -50 -41 -50 -5 0
-13 -11 -18 -25 -5 -14 -14 -25 -19 -25 -5 0 -12 -16 -15 -35 -4 -19 -13 -38
-21 -43 -19 -10 -33 -115 -23 -167 8 -38 12 -42 66 -64 l59 -23 34 21 c19 12
49 21 67 21 19 0 46 8 60 18 54 35 68 43 98 57 17 8 34 21 37 30 4 8 13 15 22
15 8 0 15 7 15 16 0 9 9 18 20 21 10 3 22 14 25 24 4 10 12 19 20 19 7 0 15 9
18 20 3 11 12 20 21 20 9 0 16 7 16 15 0 8 9 19 20 25 11 6 20 17 20 24 0 7 9
21 20 31 11 10 20 27 20 37 0 10 6 21 14 24 20 8 66 79 66 102 0 11 9 31 20
45 11 14 20 37 20 51 0 14 9 34 20 43 11 10 20 30 20 46 0 15 9 45 20 67 27
52 27 135 0 175 -11 17 -20 45 -20 63 0 19 -6 35 -15 38 -8 3 -17 22 -21 41
-4 20 -15 44 -25 54 -11 11 -19 25 -19 33 0 8 -18 33 -40 56 -22 23 -40 46
-40 51 0 5 -7 9 -15 9 -8 0 -15 4 -15 9 0 5 -19 29 -42 54 -71 75 -88 98 -88
118 0 10 -6 19 -14 19 -22 0 -26 23 -26 144 0 100 2 115 20 131 11 10 20 27
20 37 0 10 18 38 40 60 22 23 40 46 40 50 0 4 7 8 15 8 8 0 19 9 25 20 6 11
17 20 24 20 7 0 21 9 31 20 10 11 22 20 28 20 5 0 31 18 57 40 26 22 51 40 54
40 15 0 86 64 86 77 0 8 9 32 19 53 11 22 15 40 10 40 -4 0 -14 18 -20 40 -10
32 -20 44 -55 60 -46 23 -93 31 -138 23z"/>
<path d="M14273 12412 c-97 -2 -120 -6 -141 -22 -13 -11 -37 -20 -53 -20 -18
0 -32 -7 -39 -20 -6 -11 -15 -20 -21 -20 -5 0 -39 -29 -74 -65 -49 -48 -65
-72 -65 -92 0 -16 -9 -41 -20 -58 -11 -16 -20 -37 -20 -46 0 -33 -111 -102
-126 -78 -3 6 -14 9 -24 6 -12 -3 -22 4 -31 19 -7 13 -20 26 -31 30 -10 3 -18
11 -18 17 0 7 -9 18 -20 25 -11 7 -20 18 -20 26 0 7 -9 16 -20 19 -11 3 -20
12 -20 21 0 9 -7 16 -15 16 -8 0 -19 9 -25 20 -7 14 -21 20 -44 20 -18 0 -45
9 -59 20 -19 15 -40 20 -85 20 -44 0 -66 -5 -85 -20 -14 -11 -31 -20 -37 -20
-7 0 -38 -27 -69 -59 -32 -33 -69 -63 -84 -66 -14 -4 -28 -13 -31 -21 -4 -10
-23 -14 -64 -14 -46 0 -63 4 -77 20 -10 11 -24 20 -31 20 -7 0 -15 9 -19 19
-3 11 -12 22 -19 24 -8 3 -17 20 -21 37 -14 65 -118 145 -141 109 -3 -6 -22
-17 -40 -25 -23 -10 -34 -21 -34 -34 0 -11 -9 -28 -20 -37 -11 -10 -20 -29
-20 -44 0 -14 -8 -34 -19 -43 -17 -16 -19 -45 -26 -479 -9 -618 -9 -587 0
-717 6 -92 11 -119 26 -133 11 -10 19 -27 19 -38 0 -11 21 -40 46 -65 55 -52
105 -60 139 -21 30 34 65 87 65 97 0 6 9 27 20 47 18 34 20 57 20 263 1 124 5
245 11 270 5 25 16 88 25 140 8 52 20 100 26 107 6 7 14 33 19 57 14 77 99
174 192 222 61 30 175 35 202 7 34 -33 255 -27 255 8 0 5 7 9 16 9 9 0 29 14
46 32 27 29 29 30 34 10 5 -18 22 -28 77 -46 9 -3 17 -12 17 -20 0 -7 9 -16
20 -19 14 -3 20 -14 20 -31 0 -14 9 -34 20 -43 12 -11 20 -30 20 -50 0 -22 6
-36 20 -43 13 -7 20 -21 20 -40 0 -20 5 -30 15 -30 9 0 20 -11 24 -24 5 -13
17 -26 25 -29 9 -4 16 -12 16 -19 0 -8 9 -21 20 -31 11 -9 20 -25 20 -34 0
-10 9 -24 20 -31 11 -7 20 -21 20 -32 0 -10 8 -27 19 -37 10 -10 22 -34 26
-53 4 -19 11 -39 15 -45 19 -26 20 -66 0 -102 -11 -21 -20 -43 -20 -51 0 -7
-12 -18 -27 -24 -16 -7 -39 -20 -52 -30 -13 -10 -39 -18 -58 -18 -20 0 -46 -9
-60 -20 -14 -11 -35 -20 -46 -20 -11 0 -27 -7 -36 -15 -9 -8 -49 -45 -88 -83
l-73 -68 0 -57 c0 -55 1 -57 35 -71 19 -8 35 -20 35 -25 0 -6 14 -11 30 -11
17 0 45 -7 63 -17 38 -19 105 -18 155 3 19 7 42 14 52 14 9 0 29 9 43 20 14
11 33 20 42 20 9 0 28 9 42 20 14 11 31 20 38 20 6 0 20 9 30 20 10 11 23 20
28 20 9 0 89 66 153 125 29 28 114 153 114 169 0 8 9 33 19 57 16 36 20 70 21
185 1 127 -1 143 -20 166 -11 14 -20 34 -20 43 0 18 -52 75 -68 75 -5 0 -12 9
-15 20 -3 11 -12 20 -20 20 -9 0 -19 9 -22 20 -3 11 -12 20 -20 20 -8 0 -17 9
-20 20 -3 11 -13 20 -22 20 -8 0 -17 9 -20 20 -3 11 -12 20 -19 20 -8 0 -14 4
-14 10 0 5 -10 19 -22 30 -20 18 -23 31 -23 95 0 57 4 78 18 92 9 10 39 41 66
69 27 28 63 56 80 64 17 7 31 16 31 20 0 5 15 14 34 20 19 6 58 33 85 59 49
47 51 51 51 103 0 30 -6 61 -12 70 -15 19 -81 24 -255 20z"/>
<path d="M10047 12390 c-12 -14 -29 -20 -60 -20 -30 0 -47 -6 -60 -20 -10 -12
-29 -20 -47 -20 -20 0 -30 -5 -30 -15 0 -8 -4 -15 -9 -15 -9 0 -84 -63 -105
-88 -6 -7 -19 -22 -28 -33 -10 -10 -18 -23 -18 -29 0 -5 -8 -14 -19 -19 -11
-7 -20 -26 -24 -51 -3 -23 -12 -49 -20 -58 -8 -9 -17 -37 -20 -62 -3 -24 -13
-49 -21 -56 -10 -6 -16 -26 -16 -47 0 -22 -7 -43 -19 -54 -10 -10 -21 -38 -24
-63 -3 -24 -13 -50 -22 -56 -15 -11 -17 -38 -17 -211 -1 -173 2 -203 17 -226
11 -17 19 -55 22 -109 4 -59 11 -90 24 -107 11 -13 19 -38 19 -55 0 -20 7 -36
20 -44 11 -7 20 -21 20 -32 0 -11 9 -25 20 -32 11 -7 20 -21 20 -30 0 -10 7
-18 16 -18 9 0 18 -9 21 -20 3 -11 14 -20 24 -20 11 0 28 -9 39 -20 11 -11 27
-20 36 -20 9 0 18 -9 21 -20 4 -15 14 -20 38 -20 22 0 37 -7 46 -21 13 -19 24
-21 141 -22 118 -2 128 -1 150 21 14 12 35 22 47 22 13 0 34 9 48 20 14 11 34
20 44 20 10 0 23 9 29 20 6 11 18 20 28 20 9 0 37 18 61 40 24 22 46 40 48 40
9 0 63 59 63 69 0 6 7 11 15 11 9 0 19 8 22 18 4 9 15 23 25 30 10 7 18 24 18
38 0 13 7 27 15 30 8 4 18 23 21 44 4 22 13 41 20 44 9 3 14 21 14 45 0 38 -2
40 -36 47 -49 9 -116 -1 -126 -20 -5 -9 -15 -16 -23 -16 -8 0 -19 -9 -24 -19
-6 -10 -23 -24 -38 -30 -39 -16 -69 -34 -94 -57 -19 -17 -41 -19 -200 -22
l-178 -4 -24 26 c-14 14 -29 26 -35 26 -7 0 -14 10 -16 23 -8 39 -13 165 -7
175 12 18 50 32 86 32 20 0 53 9 75 20 22 11 50 20 62 20 13 0 58 24 102 53
43 28 89 58 102 65 13 7 24 20 24 28 0 7 7 14 15 14 17 0 92 76 101 103 3 9 9
17 14 17 5 0 14 17 21 37 6 21 18 43 25 51 7 7 16 29 19 50 3 20 12 57 20 82
19 56 19 149 1 175 -7 11 -16 44 -18 74 -3 34 -12 59 -22 66 -9 7 -16 16 -16
21 -1 13 -47 64 -59 64 -6 0 -15 9 -21 20 -6 11 -21 20 -34 20 -13 0 -31 9
-41 20 -12 13 -31 20 -55 20 -22 0 -48 8 -63 20 -20 16 -40 20 -99 20 -61 0
-76 -3 -91 -20z m161 -345 c23 -16 42 -32 42 -35 0 -4 9 -17 20 -30 26 -30 29
-144 5 -170 -9 -10 -19 -35 -23 -57 -4 -22 -20 -54 -35 -72 -24 -30 -36 -34
-95 -41 -133 -14 -222 19 -222 82 0 14 -7 31 -15 38 -20 16 -19 98 0 124 8 11
15 28 15 39 0 38 75 113 150 149 32 16 114 2 158 -27z"/>
<path d="M6962 12350 c-20 -13 -50 -20 -80 -20 -36 0 -50 -5 -60 -20 -8 -13
-23 -20 -42 -20 -19 0 -33 -7 -40 -20 -6 -11 -21 -20 -33 -20 -13 0 -41 -17
-65 -40 -22 -22 -43 -40 -46 -40 -8 0 -56 -50 -56 -58 0 -4 -9 -13 -20 -20
-17 -11 -20 -23 -20 -95 0 -122 3 -127 61 -127 41 0 71 11 172 63 l122 62 96
0 c76 0 101 -4 115 -16 11 -9 33 -20 50 -23 18 -4 40 -16 50 -27 9 -10 26 -19
36 -19 10 0 21 -8 25 -17 3 -10 14 -26 25 -36 14 -14 18 -33 18 -93 0 -66 -3
-78 -25 -99 -13 -14 -33 -25 -45 -25 -11 0 -31 -6 -43 -14 -12 -8 -62 -17
-112 -21 -70 -5 -94 -11 -108 -26 -10 -10 -27 -19 -38 -19 -12 0 -32 -9 -46
-20 -14 -11 -36 -20 -48 -20 -12 0 -34 -9 -48 -20 -14 -11 -35 -20 -46 -20
-12 0 -29 -9 -38 -20 -10 -11 -21 -20 -26 -20 -12 0 -147 -138 -147 -150 0 -5
-5 -10 -11 -10 -5 0 -16 -15 -24 -33 -8 -19 -21 -39 -29 -47 -9 -7 -16 -18
-16 -26 0 -7 -7 -17 -15 -21 -34 -19 -34 -196 1 -230 8 -8 14 -20 14 -27 0 -7
9 -24 19 -38 11 -13 23 -37 26 -51 4 -15 14 -27 22 -27 8 0 17 -9 20 -20 3
-11 13 -20 23 -20 29 0 50 -11 50 -26 0 -8 8 -14 19 -14 10 0 31 -10 46 -22
25 -19 39 -21 156 -21 117 0 133 2 159 21 16 12 39 22 51 22 11 0 32 9 46 20
14 11 34 20 44 20 10 0 23 9 29 20 14 26 78 27 106 2 11 -10 32 -22 47 -26 15
-3 27 -13 27 -21 0 -7 9 -17 20 -20 11 -3 20 -11 20 -16 0 -11 60 -69 71 -69
5 0 9 -7 9 -15 0 -11 12 -15 45 -15 38 0 49 5 83 40 22 21 42 50 46 64 3 13
12 31 19 38 8 7 16 35 19 61 3 26 13 56 22 66 14 15 16 57 16 341 0 287 -2
325 -17 342 -12 13 -18 45 -22 118 -4 71 -10 103 -20 109 -9 6 -16 32 -19 68
-2 32 -11 66 -19 75 -8 9 -17 35 -20 58 -3 23 -12 44 -19 47 -7 3 -16 21 -20
40 -4 19 -13 37 -20 40 -8 3 -14 10 -14 17 0 17 -120 146 -136 146 -7 0 -19 9
-26 20 -9 13 -24 20 -45 20 -18 0 -36 7 -41 15 -4 9 -30 19 -58 24 -27 5 -62
16 -79 25 -41 22 -103 20 -143 -4z m309 -1008 c39 -41 39 -42 39 -125 0 -77
-2 -86 -31 -126 -18 -23 -43 -47 -56 -52 -27 -10 -262 -13 -287 -3 -9 3 -16
12 -16 19 0 7 -9 15 -20 18 -11 3 -20 12 -20 20 0 9 -8 18 -18 21 -18 6 -42
57 -42 88 0 17 65 100 82 107 6 2 19 12 29 22 11 11 29 19 41 19 12 0 30 8 40
17 23 21 86 30 162 23 52 -5 62 -10 97 -48z"/>
<path d="M11155 12270 c-10 -11 -26 -22 -36 -25 -11 -4 -19 -13 -19 -22 0 -14
-28 -55 -65 -94 -8 -9 -15 -25 -15 -37 0 -12 -9 -27 -20 -34 -12 -8 -20 -24
-20 -40 0 -16 -9 -37 -20 -48 -18 -18 -21 -42 -31 -321 -9 -225 -9 -321 0
-382 6 -45 11 -124 11 -176 0 -74 4 -98 16 -113 10 -10 19 -40 22 -68 3 -32 9
-50 18 -50 7 0 16 -10 20 -22 6 -19 53 -69 113 -120 12 -10 30 -18 41 -18 11
0 29 -9 40 -20 12 -12 33 -20 53 -20 17 0 46 -9 62 -20 26 -17 47 -20 150 -19
82 0 133 5 160 15 22 8 49 18 60 21 11 4 31 14 44 25 13 10 31 18 40 18 9 0
22 9 29 20 7 11 20 20 30 20 19 0 122 107 122 127 0 7 9 18 20 25 11 7 20 17
20 23 0 6 9 18 20 28 11 9 20 28 20 42 0 14 8 29 20 35 13 7 20 21 20 42 0 17
7 40 16 49 9 11 19 46 23 81 4 35 14 74 22 88 21 37 21 494 -1 530 -8 14 -17
61 -20 104 -5 57 -11 82 -23 91 -12 9 -17 27 -17 63 0 41 -4 53 -20 62 -13 7
-20 21 -20 40 0 20 -6 31 -20 35 -11 3 -20 12 -20 20 0 19 -23 25 -99 25 -61
0 -70 -3 -94 -28 -15 -15 -27 -36 -27 -47 0 -10 -8 -27 -17 -38 -16 -16 -18
-41 -18 -177 0 -138 2 -160 18 -178 12 -13 20 -43 24 -93 3 -41 12 -84 19 -96
19 -31 19 -221 0 -248 -7 -11 -16 -46 -19 -79 -3 -32 -13 -66 -21 -75 -9 -10
-16 -23 -16 -29 0 -20 -66 -81 -96 -88 -16 -4 -34 -14 -40 -23 -8 -10 -34 -16
-82 -19 -61 -4 -73 -1 -91 17 -12 12 -26 21 -33 21 -19 0 -98 91 -98 114 0 11
-9 35 -20 51 -19 28 -20 47 -20 285 1 226 3 261 20 310 16 46 19 83 20 223 l0
168 -27 35 c-24 29 -34 34 -69 34 -28 0 -47 -6 -59 -20z"/>
<path d="M7957 12205 c-26 -25 -47 -54 -47 -63 0 -10 -7 -27 -15 -38 -20 -26
-20 -165 0 -203 8 -16 17 -66 21 -112 4 -46 14 -94 21 -106 8 -12 17 -51 20
-85 4 -35 12 -72 19 -84 8 -11 17 -43 21 -70 3 -27 13 -54 21 -60 8 -6 17 -34
20 -64 3 -33 12 -60 23 -71 11 -11 19 -33 19 -54 0 -22 8 -43 20 -55 11 -11
20 -30 20 -43 0 -12 9 -30 20 -40 11 -9 20 -27 20 -40 0 -12 9 -30 20 -40 11
-9 20 -29 20 -44 0 -17 8 -33 20 -41 11 -7 20 -23 20 -37 0 -14 9 -34 20 -45
11 -11 20 -31 20 -45 0 -16 6 -25 16 -25 9 0 18 -9 21 -20 3 -11 12 -20 20
-20 8 0 17 -9 20 -20 3 -11 13 -20 23 -20 9 0 25 -9 35 -20 15 -16 31 -20 87
-20 51 0 70 4 74 15 3 8 20 19 37 25 18 6 43 26 57 46 34 48 58 78 102 127 21
23 40 54 43 69 4 14 12 29 19 31 8 3 16 22 20 41 4 20 11 36 16 36 5 0 17 15
25 33 8 17 27 52 41 77 14 25 30 63 36 85 5 22 15 47 22 55 7 8 16 32 19 54 3
21 13 46 22 56 8 9 15 28 15 42 0 14 8 36 19 49 10 13 21 42 25 64 4 22 13 47
21 55 7 8 15 32 19 53 4 20 11 37 16 37 5 0 17 25 25 55 9 30 20 57 25 60 4 3
11 24 15 47 4 24 13 52 21 63 7 11 16 40 20 65 4 25 13 57 20 72 8 15 14 56
14 92 0 74 -11 86 -75 86 -32 0 -46 -10 -123 -87 -81 -82 -104 -112 -131 -170
-6 -13 -15 -23 -21 -23 -5 0 -17 -15 -25 -32 -26 -56 -43 -81 -59 -90 -9 -5
-16 -17 -16 -27 0 -10 -9 -28 -20 -41 -11 -13 -20 -31 -20 -40 0 -10 -9 -29
-20 -43 -11 -14 -20 -37 -20 -51 0 -15 -8 -31 -20 -38 -14 -9 -20 -24 -20 -49
0 -20 -8 -47 -18 -60 -10 -13 -21 -32 -25 -41 -3 -10 -12 -18 -19 -18 -7 0
-19 -9 -26 -20 -15 -25 -79 -28 -89 -4 -3 8 -16 20 -29 25 -13 4 -24 15 -24
24 0 8 -6 15 -14 15 -15 0 -26 21 -26 51 0 10 -9 28 -20 39 -14 14 -20 33 -20
63 0 30 -6 48 -20 60 -14 12 -20 29 -20 61 0 32 -5 48 -17 54 -12 7 -19 30
-24 77 -5 47 -12 71 -23 77 -10 6 -16 22 -16 47 0 23 -8 48 -20 64 -11 14 -20
36 -20 50 0 13 -9 32 -20 42 -11 10 -20 26 -20 36 0 27 -11 49 -25 49 -7 0
-15 9 -18 20 -5 18 -14 20 -84 20 l-78 0 -48 -45z"/>
<path d="M4551 9880 c-13 -11 -29 -20 -37 -20 -7 0 -25 -12 -40 -27 l-26 -26
0 -343 0 -343 -32 -36 c-30 -33 -34 -35 -98 -35 -75 0 -98 6 -98 26 0 8 -9 14
-20 14 -11 0 -28 8 -39 19 -13 13 -40 20 -105 25 -114 9 -256 -2 -256 -20 0
-8 -4 -14 -9 -14 -28 0 -111 -117 -111 -157 0 -11 -9 -28 -20 -38 -11 -10 -20
-30 -20 -45 0 -15 -9 -37 -20 -50 -14 -16 -20 -37 -20 -72 0 -29 -9 -68 -21
-96 -20 -44 -21 -61 -21 -364 0 -305 1 -318 21 -351 11 -19 21 -48 21 -65 0
-21 7 -35 20 -42 11 -6 20 -20 20 -30 0 -11 9 -29 20 -40 11 -11 20 -26 20
-33 0 -8 9 -22 20 -32 11 -10 20 -24 20 -32 0 -21 96 -113 118 -113 10 0 27
-10 38 -21 17 -19 27 -21 96 -16 47 3 86 11 100 21 12 9 30 16 39 16 9 0 24 9
34 20 10 11 24 20 31 20 7 0 49 37 93 82 l81 82 23 -22 c13 -12 33 -22 44 -22
13 0 24 -8 28 -20 3 -11 13 -20 21 -20 8 0 14 -4 14 -9 0 -8 31 -47 72 -88 34
-34 80 -30 117 10 17 17 31 41 31 52 0 11 9 34 20 50 12 19 20 47 20 75 0 27
9 61 21 84 17 33 20 51 16 135 -2 53 -11 123 -20 156 -14 51 -17 123 -17 473
0 370 2 416 17 450 15 32 18 80 21 370 2 203 0 332 -6 332 -5 0 -15 14 -23 31
-13 32 -53 79 -68 79 -4 0 -16 9 -26 20 -23 26 -73 25 -104 0z m-465 -1160
c38 0 59 -5 72 -17 10 -10 29 -24 42 -31 25 -14 90 -94 90 -112 0 -5 7 -13 16
-18 10 -6 18 -28 22 -58 3 -27 12 -54 21 -60 10 -8 16 -34 19 -80 3 -39 10
-74 18 -82 19 -18 19 -116 0 -131 -7 -6 -16 -29 -19 -50 -6 -49 -53 -110 -89
-118 -15 -3 -35 -14 -44 -24 -24 -27 -191 -28 -216 -1 -9 9 -29 28 -45 42 -33
30 -83 120 -83 152 0 12 -7 29 -16 39 -24 26 -39 248 -26 381 8 87 13 104 31
116 11 8 21 21 21 28 0 8 12 16 28 20 15 3 32 7 37 9 6 2 23 2 39 0 16 -3 53
-5 82 -5z"/>
<path d="M5210 9720 c0 -6 -8 -14 -17 -17 -25 -10 -62 -55 -63 -77 0 -11 -8
-28 -17 -38 -13 -14 -18 -48 -24 -146 -4 -70 -13 -141 -20 -158 -11 -27 -10
-39 4 -75 9 -24 19 -64 23 -89 3 -25 13 -55 20 -67 8 -12 14 -28 14 -34 0 -6
12 -23 27 -36 30 -29 29 -30 75 72 21 47 29 87 37 185 6 69 15 161 21 205 12
94 -1 222 -26 260 -16 25 -54 35 -54 15z"/>
<path d="M10703 9701 c-40 -10 -80 -56 -88 -101 -4 -19 -13 -42 -20 -50 -7 -8
-16 -46 -20 -85 -4 -38 -13 -83 -20 -100 -7 -16 -16 -55 -19 -85 -3 -32 -12
-60 -21 -66 -8 -6 -15 -16 -15 -21 0 -21 -42 -63 -63 -63 -12 0 -28 -9 -35
-20 -10 -17 -23 -20 -77 -20 -52 0 -69 -4 -85 -20 -11 -11 -31 -20 -44 -20
-15 0 -26 -7 -29 -20 -3 -11 -12 -20 -21 -20 -13 0 -16 -12 -16 -66 0 -70 12
-104 36 -104 8 0 32 -9 54 -20 22 -11 57 -20 79 -20 29 0 48 -7 67 -25 15 -14
31 -25 35 -25 5 0 9 -7 9 -15 0 -8 9 -19 19 -25 29 -15 34 -133 20 -410 -7
-129 -12 -278 -13 -330 0 -122 22 -311 39 -330 7 -8 16 -26 20 -40 9 -28 76
-100 94 -100 7 0 24 -9 38 -20 17 -13 41 -20 72 -20 26 0 56 -7 69 -16 12 -8
53 -18 91 -21 58 -5 76 -2 113 16 26 12 64 21 92 21 50 0 156 43 189 77 52 54
57 65 57 132 -1 57 -4 70 -27 96 l-26 30 -146 3 c-126 3 -148 6 -163 22 -10
10 -26 21 -37 25 -11 3 -29 21 -40 40 -11 19 -25 35 -31 35 -5 0 -10 13 -10
30 0 16 -9 44 -20 62 -18 30 -20 50 -19 218 0 102 4 214 8 250 5 36 15 114 22
175 13 106 15 111 51 147 21 21 47 38 58 38 11 0 34 9 52 20 20 12 51 20 78
20 29 0 54 7 70 20 14 11 33 20 42 20 9 0 23 6 30 13 7 7 25 20 41 30 24 15
27 23 27 71 0 52 -1 55 -29 61 -16 3 -35 13 -42 21 -8 10 -36 14 -105 14 -91
0 -94 1 -131 32 -51 44 -53 47 -53 95 0 23 -5 45 -11 49 -8 4 -9 49 -4 148 6
119 4 146 -9 171 -9 17 -16 38 -16 47 0 9 -4 19 -8 22 -16 10 -128 15 -159 7z"/>
<path d="M6267 9680 c-14 -11 -37 -20 -51 -20 -19 0 -49 -22 -111 -84 -47 -46
-85 -88 -85 -94 0 -6 -9 -16 -20 -22 -12 -6 -20 -21 -20 -35 0 -14 -9 -33 -20
-42 -12 -11 -20 -30 -20 -49 0 -17 -8 -42 -18 -55 -10 -13 -24 -39 -31 -56 -8
-18 -17 -33 -22 -33 -5 0 -9 -9 -9 -20 0 -10 -8 -27 -19 -37 -10 -10 -21 -36
-24 -57 -4 -22 -13 -44 -22 -48 -8 -5 -15 -22 -15 -38 0 -17 -9 -39 -20 -50
-13 -13 -20 -33 -20 -59 0 -22 -8 -48 -19 -62 -12 -16 -20 -46 -23 -88 -3 -41
-10 -68 -20 -75 -10 -7 -17 -36 -21 -84 -3 -41 -12 -84 -20 -95 -8 -12 -16
-57 -19 -100 -3 -48 -11 -84 -20 -95 -11 -12 -17 -54 -22 -157 -4 -77 -10
-166 -14 -197 -11 -73 15 -285 37 -309 9 -9 28 -31 43 -48 24 -27 34 -31 78
-31 49 0 52 2 120 71 39 40 70 81 70 91 0 11 9 31 20 45 11 15 20 41 20 60 0
20 9 46 20 60 16 21 20 42 21 107 0 68 5 89 27 130 l27 50 132 2 c102 1 136 5
154 18 33 23 92 21 114 -4 10 -11 23 -20 30 -20 13 0 48 -37 83 -88 35 -52 49
-174 36 -329 -3 -46 -2 -73 4 -73 6 0 16 -16 22 -35 13 -38 50 -85 68 -85 6 0
15 -7 20 -16 5 -10 27 -18 55 -21 36 -4 53 -1 81 16 49 31 116 113 116 144 0
13 6 30 14 36 8 7 17 28 21 49 4 20 14 50 23 67 13 24 17 67 20 206 4 162 2
181 -17 224 -14 33 -21 68 -21 114 0 49 -5 74 -20 96 -16 25 -20 47 -20 125 0
77 -4 101 -20 128 -14 23 -20 50 -20 95 0 39 -6 73 -17 92 -10 19 -19 66 -23
129 -5 76 -11 101 -23 108 -12 6 -17 23 -17 59 0 37 -5 53 -20 66 -13 12 -20
30 -20 55 0 25 -7 45 -20 58 -11 11 -20 32 -20 48 0 15 -9 35 -20 45 -11 9
-20 28 -20 42 0 14 -8 29 -19 34 -10 6 -21 21 -25 35 -7 27 -69 86 -91 86 -8
0 -19 9 -25 20 -10 18 -21 20 -139 20 -113 0 -131 -2 -154 -20z m87 -459 c23
-11 52 -22 66 -25 26 -6 72 -64 85 -107 4 -13 15 -32 24 -43 14 -15 16 -47 16
-216 0 -192 -1 -199 -22 -222 -13 -14 -23 -29 -23 -35 0 -5 -9 -18 -21 -29
-19 -17 -37 -19 -153 -19 -129 0 -132 1 -173 29 -24 16 -43 33 -43 38 0 4 -9
17 -21 29 -19 19 -21 30 -17 104 2 58 8 88 19 101 10 12 18 45 22 88 3 48 10
74 21 82 12 8 16 28 16 72 0 69 6 92 26 92 8 0 14 7 14 15 0 9 10 19 23 24 13
5 29 16 36 25 18 21 55 20 105 -3z"/>
<path d="M13960 9666 c-54 -17 -82 -48 -84 -93 l-1 -38 48 -3 c35 -2 49 1 53
12 3 9 11 16 16 16 19 0 58 50 58 74 0 15 -9 27 -25 34 -14 7 -27 12 -28 11
-1 -1 -18 -6 -37 -13z"/>
<path d="M13158 9610 c-27 -27 -48 -54 -48 -60 0 -6 -6 -13 -14 -16 -8 -3 -18
-19 -21 -36 -4 -16 -13 -32 -21 -35 -7 -3 -16 -21 -20 -40 -4 -19 -12 -37 -20
-40 -7 -2 -16 -29 -19 -61 -4 -32 -14 -67 -22 -80 -8 -13 -18 -66 -22 -120 -5
-53 -14 -110 -20 -125 -15 -38 -14 -125 5 -378 11 -150 14 -274 10 -414 -6
-215 7 -416 29 -451 7 -12 17 -37 20 -57 4 -20 13 -41 21 -48 8 -6 14 -20 14
-30 0 -11 9 -28 20 -39 11 -11 23 -34 27 -50 3 -17 11 -30 17 -30 6 0 19 -9
29 -21 13 -14 24 -18 40 -13 64 19 132 85 178 174 l24 45 -3 369 c-1 207 -7
387 -13 410 -20 80 -23 343 -5 444 22 128 24 673 2 692 -8 6 -16 21 -18 33 -3
20 -10 22 -63 24 -60 2 -60 2 -107 -47z"/>
<path d="M15040 9265 c-25 -7 -57 -14 -72 -14 -16 -1 -37 -10 -48 -21 -11 -11
-31 -20 -45 -20 -14 0 -28 -6 -31 -14 -3 -8 -19 -18 -36 -21 -30 -7 -168 -134
-168 -155 0 -6 -6 -10 -14 -10 -7 0 -16 -12 -19 -27 -4 -16 -22 -45 -42 -66
-19 -21 -35 -44 -35 -51 0 -7 -8 -24 -19 -37 -10 -13 -22 -43 -26 -67 -4 -23
-12 -48 -19 -55 -7 -7 -16 -55 -20 -112 -3 -55 -13 -127 -21 -160 -19 -76 -19
-187 -1 -247 8 -26 18 -80 22 -120 4 -44 13 -77 21 -83 8 -6 17 -31 20 -55 3
-25 14 -56 24 -69 11 -13 19 -33 19 -45 0 -12 9 -27 20 -34 11 -7 20 -19 20
-27 0 -8 7 -15 15 -15 8 0 15 -4 15 -9 0 -13 96 -111 108 -111 6 0 16 -9 22
-20 6 -11 21 -20 34 -20 13 0 31 -9 41 -20 10 -11 31 -20 46 -20 15 0 30 -4
33 -9 11 -17 114 -22 148 -7 18 8 49 18 70 21 20 3 39 12 42 20 3 8 16 15 30
15 14 0 32 8 41 17 19 18 65 45 108 63 15 7 27 18 27 26 0 8 8 14 18 14 27 0
113 75 168 147 79 102 104 203 65 251 -24 27 -55 28 -88 2 -14 -11 -36 -20
-48 -20 -12 0 -30 -9 -40 -20 -10 -11 -28 -20 -40 -20 -12 0 -34 -9 -48 -20
-14 -11 -37 -20 -51 -20 -14 0 -29 -7 -34 -16 -6 -10 -31 -20 -64 -25 -31 -5
-68 -16 -84 -24 -38 -20 -52 -19 -97 5 -20 11 -44 20 -53 20 -23 0 -94 76 -94
100 0 12 -5 31 -11 42 -29 54 -29 77 -1 103 15 14 31 25 37 25 6 0 16 9 23 20
10 17 23 20 78 20 51 0 72 5 91 20 15 11 41 20 61 20 23 0 51 10 76 28 40 27
126 108 126 119 0 3 11 19 25 37 14 17 33 42 42 55 10 13 26 32 36 42 9 11 17
27 17 38 0 10 10 31 22 46 20 26 21 39 22 192 1 146 -1 166 -16 177 -10 7 -18
17 -18 22 0 13 -87 104 -99 104 -6 0 -16 9 -23 20 -7 11 -21 20 -30 20 -10 0
-26 8 -36 18 -15 15 -61 27 -172 46 -14 2 -45 -2 -70 -9z m53 -325 c14 -11 29
-20 35 -20 20 0 40 -38 47 -87 4 -29 11 -55 16 -59 17 -10 10 -110 -12 -159
-20 -46 -51 -85 -67 -85 -5 0 -17 -9 -27 -20 -15 -16 -31 -20 -85 -20 -54 0
-70 4 -85 20 -10 11 -24 20 -31 20 -7 0 -16 10 -20 22 -3 12 -15 31 -25 42
-16 16 -19 35 -19 106 0 73 3 88 20 103 11 9 20 26 20 38 0 43 108 118 171
119 22 0 47 -8 62 -20z"/>
<path d="M7452 9213 c-25 -10 -62 -54 -62 -73 0 -11 -8 -28 -19 -39 -17 -17
-19 -47 -25 -432 -4 -228 -12 -445 -17 -484 -14 -116 -11 -310 6 -352 8 -19
15 -61 15 -93 0 -43 5 -63 20 -80 11 -13 20 -34 20 -47 0 -14 16 -38 42 -63
44 -41 84 -52 94 -25 4 8 11 15 16 15 13 0 58 47 58 60 0 5 9 14 20 20 11 6
20 20 20 32 0 11 9 36 21 55 20 32 21 48 24 392 2 295 5 364 18 392 8 19 17
56 20 83 3 29 12 55 21 61 9 7 16 22 16 33 0 12 23 45 54 77 52 52 57 55 104
55 28 0 61 -4 74 -9 36 -14 88 -68 88 -90 0 -12 9 -30 20 -41 23 -23 25 -58
21 -330 -3 -159 -12 -232 -30 -238 -6 -2 -11 -22 -11 -45 0 -23 -5 -107 -11
-187 -16 -200 -2 -303 47 -354 19 -20 39 -36 45 -36 34 0 169 153 169 190 0 9
9 25 20 35 13 12 20 31 20 55 0 22 8 48 20 63 11 14 20 40 20 60 0 19 9 45 20
60 11 14 20 39 20 56 0 17 9 53 20 81 15 37 20 74 20 141 0 67 5 98 17 122 15
27 18 66 21 238 3 193 2 208 -17 245 -15 27 -21 57 -21 102 0 49 -4 68 -20 84
-11 12 -20 28 -20 35 0 12 -53 68 -107 113 -30 25 -165 38 -258 26 -45 -6 -87
-17 -95 -24 -8 -7 -28 -23 -43 -37 -15 -14 -37 -25 -48 -25 -10 0 -28 -9 -39
-20 -11 -11 -31 -20 -45 -20 -28 0 -75 20 -75 32 0 4 -7 8 -16 8 -9 0 -34 18
-55 40 -22 22 -43 40 -48 40 -5 0 -12 8 -16 19 -7 24 -112 41 -153 24z"/>
<path d="M9259 9194 c-9 -8 -35 -18 -58 -21 -24 -3 -45 -12 -48 -19 -2 -7 -22
-15 -43 -19 -21 -4 -41 -12 -44 -20 -2 -7 -20 -16 -38 -20 -18 -4 -44 -16 -57
-26 -13 -11 -27 -19 -32 -19 -18 0 -99 -93 -99 -115 0 -12 -7 -28 -15 -35 -21
-17 -29 -76 -15 -108 6 -15 24 -37 39 -49 l28 -22 46 24 c26 12 54 30 62 39 9
9 26 16 38 16 12 0 28 9 35 20 8 13 23 20 42 20 16 0 45 9 64 21 31 18 49 20
132 17 77 -2 98 -6 108 -20 8 -10 26 -18 43 -18 38 0 112 -56 119 -90 3 -14 9
-32 15 -40 20 -32 20 -40 5 -71 -9 -18 -16 -43 -16 -56 0 -33 -63 -89 -109
-97 -20 -3 -58 -6 -84 -6 -32 0 -49 -5 -53 -14 -3 -8 -27 -17 -57 -21 -31 -4
-59 -15 -70 -26 -10 -11 -29 -19 -42 -19 -14 0 -25 -5 -25 -10 0 -6 -12 -16
-27 -23 -16 -6 -31 -17 -35 -23 -4 -7 -20 -15 -35 -19 -14 -3 -38 -15 -51 -26
-14 -10 -31 -19 -38 -19 -16 0 -144 -125 -144 -140 0 -6 -9 -19 -20 -30 -12
-12 -20 -33 -20 -54 0 -20 -8 -42 -17 -52 -13 -12 -19 -38 -22 -91 -3 -66 -1
-77 18 -94 11 -11 21 -32 21 -47 0 -15 9 -35 20 -45 11 -9 20 -26 20 -38 0
-12 8 -23 19 -26 11 -3 21 -13 24 -24 3 -10 12 -19 20 -19 8 0 17 -9 20 -20 3
-11 13 -20 22 -20 9 0 28 -9 42 -20 14 -11 40 -20 57 -20 17 0 40 -7 50 -15
25 -19 87 -19 133 0 19 8 45 15 58 15 23 0 188 81 216 106 8 8 20 14 25 14 16
0 149 -45 152 -51 3 -7 31 -39 99 -111 29 -31 43 -38 74 -38 28 0 41 5 49 20
6 11 15 20 21 20 13 0 58 52 59 68 0 6 9 29 20 49 13 25 20 57 20 94 0 30 8
80 17 110 24 76 24 257 0 322 -13 37 -17 80 -17 197 0 131 -3 155 -20 187 -15
29 -20 57 -20 119 0 60 -5 93 -20 125 -11 24 -20 59 -20 77 0 18 -8 40 -20 52
-11 11 -20 30 -20 43 0 12 -9 30 -20 40 -11 9 -20 28 -20 42 0 17 -5 25 -18
25 -9 0 -23 9 -30 20 -7 11 -21 20 -32 20 -11 0 -25 9 -32 20 -8 12 -24 20
-40 20 -15 0 -33 8 -40 18 -8 11 -31 21 -56 25 -24 3 -51 12 -61 21 -25 23
-230 23 -252 0z m314 -957 c20 -18 37 -42 37 -53 0 -11 9 -27 20 -37 17 -14
20 -29 20 -92 0 -62 -4 -79 -20 -95 -11 -11 -20 -23 -20 -27 0 -16 -45 -53
-64 -53 -12 0 -38 -9 -59 -20 -50 -27 -141 -27 -182 0 -16 11 -40 20 -52 20
-12 0 -27 9 -33 20 -6 11 -17 20 -25 20 -9 0 -16 16 -20 45 -4 24 -13 50 -21
56 -19 16 -17 59 4 81 47 52 88 88 99 88 7 0 20 8 30 19 10 10 32 22 50 25 17
4 37 14 44 22 8 10 33 14 83 14 68 0 75 -2 109 -33z"/>
<path d="M11970 9202 c0 -12 -46 -32 -73 -32 -13 0 -30 -9 -40 -20 -9 -11 -28
-20 -42 -20 -14 0 -28 -7 -31 -15 -3 -8 -15 -17 -27 -21 -11 -3 -30 -15 -41
-25 -11 -11 -25 -19 -32 -19 -7 0 -15 -9 -19 -19 -3 -11 -12 -22 -19 -24 -8
-3 -17 -19 -21 -36 -4 -17 -13 -34 -21 -39 -7 -4 -18 -29 -23 -56 -5 -27 -14
-52 -21 -56 -7 -4 -15 -36 -19 -71 -4 -36 -14 -75 -24 -89 -9 -13 -17 -43 -17
-66 0 -28 -6 -46 -20 -59 -15 -14 -20 -31 -20 -72 0 -34 -7 -66 -20 -90 -29
-55 -29 -244 0 -288 11 -16 20 -43 20 -59 0 -16 8 -43 19 -60 10 -17 21 -47
25 -68 4 -20 13 -39 21 -42 8 -3 15 -14 15 -24 0 -11 9 -30 19 -44 11 -13 23
-37 27 -52 3 -15 13 -30 20 -33 8 -3 14 -11 14 -18 0 -8 6 -20 14 -27 7 -8 21
-28 29 -45 9 -17 23 -33 32 -36 8 -4 15 -13 15 -22 0 -8 6 -15 13 -15 7 0 20
-9 30 -20 9 -11 26 -20 37 -20 11 0 25 -9 32 -20 12 -18 24 -20 141 -20 136 0
140 1 280 76 34 19 157 138 157 153 0 6 9 15 20 21 12 6 20 21 20 35 0 14 8
29 20 35 11 6 20 17 20 24 0 7 9 25 20 39 11 14 20 37 20 51 0 14 9 34 20 43
16 14 20 30 20 73 0 37 7 68 21 94 20 37 21 55 21 324 0 259 -1 287 -17 298
-10 8 -19 32 -22 58 -3 26 -13 52 -24 62 -11 9 -19 30 -19 46 0 15 -9 37 -20
48 -11 11 -20 29 -20 40 0 10 -16 35 -35 54 -19 20 -35 40 -35 46 0 5 -7 10
-15 10 -9 0 -18 7 -22 16 -3 8 -16 20 -29 25 -13 4 -24 15 -24 24 0 10 -10 15
-30 15 -18 0 -37 8 -47 20 -16 18 -30 20 -145 20 -71 0 -128 -4 -128 -8z m60
-389 c14 -6 37 -14 53 -17 15 -4 27 -12 27 -19 0 -7 9 -18 20 -25 11 -7 20
-17 20 -22 0 -6 9 -19 20 -30 13 -13 20 -33 20 -58 0 -26 6 -41 20 -50 13 -8
20 -23 20 -42 0 -17 9 -39 20 -50 14 -14 20 -33 20 -61 0 -23 8 -63 17 -90 17
-47 17 -51 0 -98 -10 -28 -17 -78 -17 -118 0 -49 -6 -80 -20 -108 -11 -22 -20
-56 -20 -77 0 -28 -8 -46 -35 -75 l-35 -38 -95 0 -95 1 -44 43 c-32 31 -47 55
-51 82 -4 20 -12 40 -19 42 -9 4 -16 34 -21 84 -4 45 -14 88 -23 103 -25 37
-25 369 -1 396 9 11 19 40 22 66 9 68 61 138 118 159 24 9 46 16 49 15 3 -1
16 -7 30 -13z"/>
<path d="M13925 9142 c-54 -23 -125 -96 -125 -130 0 -15 -9 -40 -20 -57 -14
-21 -20 -47 -20 -90 0 -38 -8 -76 -20 -104 -19 -41 -20 -66 -20 -475 0 -413 1
-432 20 -461 15 -22 20 -47 20 -93 0 -49 5 -70 20 -89 11 -14 20 -33 20 -42 0
-26 45 -61 77 -61 37 0 133 90 133 125 0 12 9 30 20 40 14 12 20 31 20 58 0
24 7 48 18 60 14 16 18 49 24 221 4 110 14 257 22 326 22 171 21 355 -1 395
-11 21 -17 65 -20 150 -6 142 -28 209 -75 220 -15 4 -30 11 -33 16 -8 11 -11
11 -60 -9z"/>
</g>
</svg>
